<?xml version="1.0" encoding="UTF-8"?><svg xmlns="http://www.w3.org/2000/svg" xmlns:xlink="http://www.w3.org/1999/xlink" fill-opacity="1" color-rendering="auto" color-interpolation="auto" text-rendering="auto" stroke="black" stroke-linecap="square" width="346" stroke-miterlimit="10" shape-rendering="auto" stroke-opacity="1" fill="black" stroke-dasharray="none" font-weight="normal" stroke-width="1" height="396" font-family="'Dialog'" font-style="normal" stroke-linejoin="miter" font-size="12px" stroke-dashoffset="0" image-rendering="auto">
  <!--Generated by ySVG 2.5-->
  <defs id="genericDefs"/>
  <g>
    <defs id="defs1">
      <clipPath clipPathUnits="userSpaceOnUse" id="clipPath1">
        <path d="M0 0 L346 0 L346 396 L0 396 L0 0 Z"/>
      </clipPath>
      <clipPath clipPathUnits="userSpaceOnUse" id="clipPath2">
        <path d="M-185 -286 L161 -286 L161 110 L-185 110 L-185 -286 Z"/>
      </clipPath>
    </defs>
    <g fill="white" text-rendering="geometricPrecision" shape-rendering="geometricPrecision" transform="translate(185,286)" stroke="white">
      <rect x="-185" width="346" height="396" y="-286" clip-path="url(#clipPath2)" stroke="none"/>
    </g>
    <g fill="rgb(204,153,255)" text-rendering="geometricPrecision" shape-rendering="geometricPrecision" transform="matrix(1,0,0,1,185,286)" stroke="rgb(204,153,255)">
      <path d="M-155.5 -218.7549 L-137.9264 -237.5 L-113.0736 -237.5 L-95.5 -218.7549 L-95.5 -192.2451 L-113.0736 -173.5 L-137.9264 -173.5 L-155.5 -192.2451 Z" fill-rule="evenodd" clip-path="url(#clipPath2)" stroke="none"/>
    </g>
    <g text-rendering="geometricPrecision" stroke-miterlimit="1.45" shape-rendering="geometricPrecision" transform="matrix(1,0,0,1,185,286)" stroke-linecap="butt">
      <path fill="none" d="M-155.5 -218.7549 L-137.9264 -237.5 L-113.0736 -237.5 L-95.5 -218.7549 L-95.5 -192.2451 L-113.0736 -173.5 L-137.9264 -173.5 L-155.5 -192.2451 Z" fill-rule="evenodd" clip-path="url(#clipPath2)"/>
      <text x="-141.8418" xml:space="preserve" y="-200.7861" clip-path="url(#clipPath2)" font-family="sans-serif" stroke="none">profile</text>
    </g>
    <g fill="rgb(204,153,255)" text-rendering="geometricPrecision" shape-rendering="geometricPrecision" transform="matrix(1,0,0,1,185,286)" stroke="rgb(204,153,255)">
      <rect x="28.5" width="96" height="26.5" y="-237.5" clip-path="url(#clipPath2)" stroke="none"/>
    </g>
    <g text-rendering="geometricPrecision" stroke-miterlimit="1.45" shape-rendering="geometricPrecision" transform="matrix(1,0,0,1,185,286)" stroke-linecap="butt">
      <rect fill="none" x="28.5" width="96" height="26.5" y="-237.5" clip-path="url(#clipPath2)"/>
      <text x="32.4814" xml:space="preserve" y="-219.5361" clip-path="url(#clipPath2)" font-family="sans-serif" stroke="none">profileUsername</text>
    </g>
    <g fill="rgb(204,153,255)" text-rendering="geometricPrecision" shape-rendering="geometricPrecision" transform="matrix(1,0,0,1,185,286)" stroke="rgb(204,153,255)">
      <rect x="28.5" width="96" height="33.5" y="-190" clip-path="url(#clipPath2)" stroke="none"/>
    </g>
    <g text-rendering="geometricPrecision" stroke-miterlimit="1.45" shape-rendering="geometricPrecision" transform="matrix(1,0,0,1,185,286)" stroke-linecap="butt">
      <rect fill="none" x="28.5" width="96" height="33.5" y="-190" clip-path="url(#clipPath2)"/>
      <text x="41.1475" xml:space="preserve" y="-168.5361" clip-path="url(#clipPath2)" font-family="sans-serif" stroke="none">profileViaTag</text>
    </g>
    <g fill="rgb(204,153,255)" text-rendering="geometricPrecision" shape-rendering="geometricPrecision" transform="matrix(1,0,0,1,185,286)" stroke="rgb(204,153,255)">
      <rect x="-32.5" width="96" height="30" y="-271" clip-path="url(#clipPath2)" stroke="none"/>
    </g>
    <g text-rendering="geometricPrecision" stroke-miterlimit="1.45" shape-rendering="geometricPrecision" transform="matrix(1,0,0,1,185,286)" stroke-linecap="butt">
      <rect fill="none" x="-32.5" width="96" height="30" y="-271" clip-path="url(#clipPath2)"/>
      <text x="-30.5137" xml:space="preserve" y="-251.2861" clip-path="url(#clipPath2)" font-family="sans-serif" stroke="none">profileTimestamp</text>
    </g>
    <g fill="rgb(204,153,255)" text-rendering="geometricPrecision" shape-rendering="geometricPrecision" transform="matrix(1,0,0,1,185,286)" stroke="rgb(204,153,255)">
      <rect x="-32.5" width="52" height="26.5" y="-211" clip-path="url(#clipPath2)" stroke="none"/>
    </g>
    <g text-rendering="geometricPrecision" stroke-miterlimit="1.45" shape-rendering="geometricPrecision" transform="matrix(1,0,0,1,185,286)" stroke-linecap="butt">
      <rect fill="none" x="-32.5" width="52" height="26.5" y="-211" clip-path="url(#clipPath2)"/>
      <text x="-28.5107" xml:space="preserve" y="-193.0361" clip-path="url(#clipPath2)" font-family="sans-serif" stroke="none">ProfileId</text>
    </g>
    <g fill="rgb(204,153,255)" text-rendering="geometricPrecision" shape-rendering="geometricPrecision" transform="matrix(1,0,0,1,185,286)" stroke="rgb(204,153,255)">
      <path d="M-155.5 -96.2549 L-137.9264 -115 L-113.0736 -115 L-95.5 -96.2549 L-95.5 -69.7451 L-113.0736 -51 L-137.9264 -51 L-155.5 -69.7451 Z" fill-rule="evenodd" clip-path="url(#clipPath2)" stroke="none"/>
    </g>
    <g stroke-linecap="butt" transform="matrix(1,0,0,1,185,286)" fill="rgb(51,0,51)" text-rendering="geometricPrecision" shape-rendering="geometricPrecision" stroke="rgb(51,0,51)" stroke-miterlimit="1.45">
      <path fill="none" d="M-155.5 -96.2549 L-137.9264 -115 L-113.0736 -115 L-95.5 -96.2549 L-95.5 -69.7451 L-113.0736 -51 L-137.9264 -51 L-155.5 -69.7451 Z" fill-rule="evenodd" clip-path="url(#clipPath2)"/>
      <text x="-151.5068" y="-78.2861" clip-path="url(#clipPath2)" fill="black" font-family="sans-serif" stroke="none" xml:space="preserve">Comment</text>
    </g>
    <g fill="rgb(204,153,255)" text-rendering="geometricPrecision" shape-rendering="geometricPrecision" transform="matrix(1,0,0,1,185,286)" stroke="rgb(204,153,255)">
      <rect x="-60.5" width="108" height="33.5" y="-101.5" clip-path="url(#clipPath2)" stroke="none"/>
    </g>
    <g text-rendering="geometricPrecision" stroke-miterlimit="1.45" shape-rendering="geometricPrecision" transform="matrix(1,0,0,1,185,286)" stroke-linecap="butt">
      <rect fill="none" x="-60.5" width="108" height="33.5" y="-101.5" clip-path="url(#clipPath2)"/>
      <text x="-53.1846" xml:space="preserve" y="-80.0361" clip-path="url(#clipPath2)" font-family="sans-serif" stroke="none">commentProfileId</text>
    </g>
    <g fill="rgb(204,153,255)" text-rendering="geometricPrecision" shape-rendering="geometricPrecision" transform="matrix(1,0,0,1,185,286)" stroke="rgb(204,153,255)">
      <rect x="-59.5" width="107" height="33.5" y="-38" clip-path="url(#clipPath2)" stroke="none"/>
    </g>
    <g text-rendering="geometricPrecision" stroke-miterlimit="1.45" shape-rendering="geometricPrecision" transform="matrix(1,0,0,1,185,286)" stroke-linecap="butt">
      <rect fill="none" x="-59.5" width="107" height="33.5" y="-38" clip-path="url(#clipPath2)"/>
      <text x="-35.6777" xml:space="preserve" y="-16.5361" clip-path="url(#clipPath2)" font-family="sans-serif" stroke="none">commentId</text>
    </g>
    <g fill="rgb(204,153,255)" text-rendering="geometricPrecision" shape-rendering="geometricPrecision" transform="matrix(1,0,0,1,185,286)" stroke="rgb(204,153,255)">
      <rect x="19.5" width="126" height="30" y="-68" clip-path="url(#clipPath2)" stroke="none"/>
    </g>
    <g text-rendering="geometricPrecision" stroke-miterlimit="1.45" shape-rendering="geometricPrecision" transform="matrix(1,0,0,1,185,286)" stroke-linecap="butt">
      <rect fill="none" x="19.5" width="126" height="30" y="-68" clip-path="url(#clipPath2)"/>
      <text x="28.1543" xml:space="preserve" y="-48.2861" clip-path="url(#clipPath2)" font-family="sans-serif" stroke="none">commentTimestamp</text>
    </g>
    <g fill="rgb(204,153,255)" text-rendering="geometricPrecision" shape-rendering="geometricPrecision" transform="matrix(1,0,0,1,185,286)" stroke="rgb(204,153,255)">
      <rect x="19.5" width="96" height="30" y="-4.5" clip-path="url(#clipPath2)" stroke="none"/>
    </g>
    <g text-rendering="geometricPrecision" stroke-miterlimit="1.45" shape-rendering="geometricPrecision" transform="matrix(1,0,0,1,185,286)" stroke-linecap="butt">
      <rect fill="none" x="19.5" width="96" height="30" y="-4.5" clip-path="url(#clipPath2)"/>
      <text x="22.4824" xml:space="preserve" y="15.2139" clip-path="url(#clipPath2)" font-family="sans-serif" stroke="none">commentReplyId</text>
    </g>
    <g fill="rgb(255,204,0)" text-rendering="geometricPrecision" shape-rendering="geometricPrecision" transform="matrix(1,0,0,1,185,286)" stroke="rgb(255,204,0)">
      <path d="M-75.5 -152 L-36 -167 L3.5 -152 L-36 -137 Z" fill-rule="evenodd" clip-path="url(#clipPath2)" stroke="none"/>
    </g>
    <g text-rendering="geometricPrecision" stroke-miterlimit="1.45" shape-rendering="geometricPrecision" transform="matrix(1,0,0,1,185,286)" stroke-linecap="butt">
      <path fill="none" d="M-75.5 -152 L-36 -167 L3.5 -152 L-36 -137 Z" fill-rule="evenodd" clip-path="url(#clipPath2)"/>
      <text x="-56.0127" xml:space="preserve" y="-147.2861" clip-path="url(#clipPath2)" font-family="sans-serif" stroke="none">authors</text>
    </g>
    <g fill="rgb(255,204,0)" text-rendering="geometricPrecision" shape-rendering="geometricPrecision" transform="matrix(1,0,0,1,185,286)" stroke="rgb(255,204,0)">
      <path d="M-162 10.5 L-125.5 -7.75 L-89 10.5 L-125.5 28.75 Z" fill-rule="evenodd" clip-path="url(#clipPath2)" stroke="none"/>
    </g>
    <g text-rendering="geometricPrecision" stroke-miterlimit="1.45" shape-rendering="geometricPrecision" transform="matrix(1,0,0,1,185,286)" stroke-linecap="butt">
      <path fill="none" d="M-162 10.5 L-125.5 -7.75 L-89 10.5 L-125.5 28.75 Z" fill-rule="evenodd" clip-path="url(#clipPath2)"/>
      <text x="-141.5049" xml:space="preserve" y="15.2139" clip-path="url(#clipPath2)" font-family="sans-serif" stroke="none">replys</text>
      <path fill="none" d="M-95.4663 -208.2878 L20.5342 -219.0552" clip-path="url(#clipPath2)"/>
      <path d="M28.5 -219.7946 L16.0892 -223.6641 L19.5385 -218.9627 L17.0135 -213.7069 Z" clip-path="url(#clipPath2)" stroke="none"/>
      <path fill="none" d="M-95.4744 -198.3272 L9.5 -173.25 L20.5 -173.25" clip-path="url(#clipPath2)"/>
      <path d="M28.5 -173.25 L16.5 -178.25 L19.5 -173.25 L16.5 -168.25 Z" clip-path="url(#clipPath2)" stroke="none"/>
      <path fill="none" d="M-95.5168 -216.2386 L-33.9127 -238.3025" clip-path="url(#clipPath2)"/>
      <path d="M-26.3812 -241 L-39.3644 -241.661 L-34.8541 -237.9653 L-35.9925 -232.2466 Z" clip-path="url(#clipPath2)" stroke="none"/>
      <path fill="none" d="M-95.5249 -203.0021 L-43.4272 -198.6606" stroke-width="4" clip-path="url(#clipPath2)"/>
      <path d="M-32.4652 -197.7471 L-48.3373 -205.9686 L-44.7975 -198.7748 L-49.4791 -192.2661 Z" stroke-width="4" clip-path="url(#clipPath2)" stroke="none"/>
      <path fill="none" stroke-dasharray="6,2" d="M-95.4968 -83 L-68.4838 -83" clip-path="url(#clipPath2)"/>
      <path stroke-dasharray="6,2" d="M-60.4838 -83 L-72.4838 -88 L-69.4838 -83 L-72.4838 -78 Z" clip-path="url(#clipPath2)" stroke="none"/>
      <path fill="none" d="M-112.1853 -51.9742 L-99 -21.25 L-70.5 -21.25" stroke-width="4" clip-path="url(#clipPath2)"/>
      <path d="M-59.5 -21.25 L-76 -28.125 L-71.875 -21.25 L-76 -14.375 Z" stroke-width="4" clip-path="url(#clipPath2)" stroke="none"/>
      <path fill="none" d="M-95.4712 -72.8779 L-36.5 -53 L11.5 -53" clip-path="url(#clipPath2)"/>
      <path d="M19.5 -53 L7.5 -58 L10.5 -53 L7.5 -48 Z" clip-path="url(#clipPath2)" stroke="none"/>
      <path fill="none" d="M33.2396 25.5 L-125.5 95 L-170 52 L-170 -53 L-158.1424 -60.9939" clip-path="url(#clipPath2)"/>
      <path d="M-151.509 -65.4658 L-164.2541 -62.9038 L-158.9716 -60.4349 L-158.6641 -54.612 Z" clip-path="url(#clipPath2)" stroke="none"/>
      <path fill="none" d="M-98.296 -189.2384 L-58.2278 -165.287" clip-path="url(#clipPath2)"/>
      <path d="M-51.3611 -161.1823 L-59.0957 -171.631 L-59.0861 -165.8001 L-64.2266 -163.0477 Z" clip-path="url(#clipPath2)" stroke="none"/>
      <path fill="none" d="M-49.0448 -141.9431 L-94.5627 -106.8511" clip-path="url(#clipPath2)"/>
      <path d="M-100.8984 -101.9666 L-88.342 -105.3335 L-93.7708 -107.4616 L-94.4477 -113.2532 Z" clip-path="url(#clipPath2)" stroke="none"/>
      <path fill="none" stroke-dasharray="6,2" d="M-125.5 -50.9771 L-125.5 -20 L-125.5 -12 L-125.5 -7.7373" clip-path="url(#clipPath2)"/>
      <path stroke-dasharray="6,2" d="M-125.5 -7.7373 L-120.5 -19.7373 L-125.5 -16.7373 L-130.5 -19.7373 Z" clip-path="url(#clipPath2)" stroke="none"/>
      <path fill="none" stroke-dasharray="6,2" d="M-88.9827 10.5 L11.5 10.5" clip-path="url(#clipPath2)"/>
      <path stroke-dasharray="6,2" d="M19.5 10.5 L7.5 5.5 L10.5 10.5 L7.5 15.5 Z" clip-path="url(#clipPath2)" stroke="none"/>
    </g>
  </g>
</svg>
